HIERARCHY
ROOT Hips
{
 OFFSET 0.000000 0.000000 0.000000
 CHANNELS 6 Xposition Yposition Zposition Yrotation Xrotation Zrotation
 JOINT Chest
 {
  OFFSET 0.000000 9.588913 -0.003946
  CHANNELS 3 Yrotation Xrotation Zrotation
  JOINT Chest2
  {
   OFFSET 0.000000 9.541882 0.008053
   CHANNELS 3 Yrotation Xrotation Zrotation
   JOINT Chest3
   {
    OFFSET 0.000000 9.501360 0.000000
    CHANNELS 3 Yrotation Xrotation Zrotation
    JOINT Chest4
    {
     OFFSET 0.000000 9.491660 0.000000
     CHANNELS 3 Yrotation Xrotation Zrotation
     JOINT Neck
     {
      OFFSET 0.000000 14.331917 0.000000
      CHANNELS 3 Yrotation Xrotation Zrotation
      JOINT Head
      {
       OFFSET 0.000000 8.884799 0.017034
       CHANNELS 3 Yrotation Xrotation Zrotation
       End Site
       {
        OFFSET 0.000000 16.896195 0.008993
       }
      }
     }
     JOINT RightCollar
     {
      OFFSET -2.923010 9.499495 0.000000
      CHANNELS 3 Yrotation Xrotation Zrotation
      JOINT RightShoulder
      {
       OFFSET -13.795216 0.000000 0.000000
       CHANNELS 3 Yrotation Xrotation Zrotation
       JOINT RightElbow
       {
        OFFSET -30.272209 0.000000 0.000000
        CHANNELS 3 Yrotation Xrotation Zrotation
        JOINT RightWrist
        {
         OFFSET -24.478199 0.000000 0.000000
         CHANNELS 3 Yrotation Xrotation Zrotation
         End Site
         {
          OFFSET -18.090752 0.000000 0.000000
         }
        }
       }
      }
     }
     JOINT LeftCollar
     {
      OFFSET 2.923010 9.499495 0.000000
      CHANNELS 3 Yrotation Xrotation Zrotation
      JOINT LeftShoulder
      {
       OFFSET 13.795216 0.000000 0.000000
       CHANNELS 3 Yrotation Xrotation Zrotation
       JOINT LeftElbow
       {
        OFFSET 30.272209 0.000000 0.000000
        CHANNELS 3 Yrotation Xrotation Zrotation
        JOINT LeftWrist
        {
         OFFSET 24.478199 0.000000 0.000000
         CHANNELS 3 Yrotation Xrotation Zrotation
         End Site
         {
          OFFSET 18.090752 0.000000 0.000000
         }
        }
       }
      }
     }
    }
   }
  }
 }
 JOINT RightHip
 {
  OFFSET -7.826875 0.019532 0.001973
  CHANNELS 3 Yrotation Xrotation Zrotation
  JOINT RightKnee
  {
   OFFSET 0.000000 -40.546152 -0.001885
   CHANNELS 3 Yrotation Xrotation Zrotation
   JOINT RightAnkle
   {
    OFFSET 0.000000 -39.417092 -0.003189
    CHANNELS 3 Yrotation Xrotation Zrotation
    JOINT RightToe
    {
     OFFSET 0.000000 -7.579396 17.243563
     CHANNELS 3 Yrotation Xrotation Zrotation
     End Site
     {
      OFFSET 0.000000 -1.500329 6.694466
     }
    }
   }
  }
 }
 JOINT LeftHip
 {
  OFFSET 7.826875 0.019532 0.001973
  CHANNELS 3 Yrotation Xrotation Zrotation
  JOINT LeftKnee
  {
   OFFSET 0.000000 -40.546152 -0.001885
   CHANNELS 3 Yrotation Xrotation Zrotation
   JOINT LeftAnkle
   {
    OFFSET 0.000000 -39.417092 -0.003189
    CHANNELS 3 Yrotation Xrotation Zrotation
    JOINT LeftToe
    {
     OFFSET 0.000000 -7.579396 17.243563
     CHANNELS 3 Yrotation Xrotation Zrotation
     End Site
     {
      OFFSET 0.000000 -1.500329 6.694466
     }
    }
   }
  }
 }
}
MOTION
Frames: 11
Frame Time: 0.008333
0.000000 87.345680 0.000000 0.000000 -5.767889 0.000000 0.000000 11.653876 0.000000 0.000000 -5.885988 0.000000 0.000000 -0.000000 0.000000 0.000000 -0.000000 0.000000 0.000000 12.528808 0.000000 0.000000 0.711711 0.000000 0.000000 -0.000000 0.000000 0.000000 -0.000000 0.000000 2.309063 -0.000000 0.000000 -2.309063 -0.000000 -0.000000 0.000000 -0.000000 0.000000 0.000000 0.000000 0.000000 -2.309063 0.000000 0.000000 2.309063 -0.000000 0.000000 0.000000 8.520374 0.000000 0.000000 1.905768 0.000000 -0.000000 -4.658254 0.000000 0.000000 -0.000000 0.000000 0.000000 8.520374 0.000000 0.000000 1.905768 0.000000 -0.000000 -4.658254 0.000000 0.000000 -0.000000 0.000000
-13.233205 89.152571 1.897684 -132.430023 -5.471215 -0.375337 -0.041842 2.774051 0.393166 -0.031879 1.582339 0.230374 -0.038858 1.977943 0.287857 -0.031879 1.582339 0.230374 3.633924 23.403480 -1.218869 4.219437 -0.451904 -2.153193 -3.228592 -0.923122 -2.834599 8.017796 -1.421611 90.115615 4.459257 -1.439713 1.770186 -1.338681 -1.025534 -0.721900 3.629685 -1.209206 1.587034 -7.937821 -3.213267 -91.008626 1.538876 1.369351 0.937571 0.624842 -6.239761 -1.310954 -3.140770 7.944517 0.991506 0.934844 1.800406 -0.720581 0.580029 -4.059213 -0.323514 0.003368 -0.011977 -0.012737 4.193215 8.269959 -0.636867 4.268693 1.561691 0.332912 2.749839 -4.529862 0.832380 0.003255 0.038258 0.002305
-13.228699 89.152360 1.897156 -132.466816 -5.485656 -0.376646 -0.032102 2.776995 0.390172 -0.026363 1.584137 0.229097 -0.031966 1.980187 0.286284 -0.026363 1.584137 0.229097 3.627420 23.411683 -1.212446 4.210919 -0.442594 -2.144731 -3.232242 -0.916498 -2.822708 8.016618 -1.431219 90.106819 4.477621 -1.446131 1.772789 -1.344858 -1.029516 -0.728398 3.606354 -1.206471 1.595132 -7.928718 -3.187797 -91.027948 1.546325 1.372955 0.939113 0.626948 -6.240050 -1.315723 -3.110678 7.952159 0.992725 0.947780 1.802909 -0.712628 0.579311 -4.057395 -0.325601 0.003167 -0.010674 -0.013117 4.185633 8.274289 -0.633419 4.260829 1.584698 0.332361 2.779863 -4.544433 0.828640 0.002687 0.036132 0.002596
-13.223655 89.152095 1.896876 -132.506003 -5.502558 -0.376094 -0.021772 2.780324 0.386467 -0.020353 1.586313 0.227300 -0.024460 1.982903 0.284064 -0.020353 1.586313 0.227300 3.621566 23.419875 -1.204385 4.202728 -0.433313 -2.134639 -3.233172 -0.909386 -2.812039 8.011330 -1.441397 90.100735 4.494884 -1.451119 1.775435 -1.348541 -1.033265 -0.734433 3.585206 -1.201296 1.604257 -7.924887 -3.164981 -91.045950 1.553612 1.378818 0.940763 0.634834 -6.234834 -1.323078 -3.076885 7.961144 0.992668 0.962238 1.806315 -0.704539 0.575840 -4.056642 -0.328666 0.003033 -0.008951 -0.012901 4.177622 8.280118 -0.633569 4.253466 1.609051 0.333976 2.812653 -4.558762 0.825042 0.002231 0.033766 0.002286
-13.218210 89.151795 1.896533 -132.543858 -5.522944 -0.375514 -0.012318 2.785021 0.383815 -0.014979 1.589368 0.225882 -0.017746 1.986719 0.282315 -0.014979 1.589368 0.225882 3.615875 23.427749 -1.197970 4.195099 -0.424350 -2.126374 -3.229764 -0.904219 -2.807952 8.004957 -1.451237 90.102215 4.511619 -1.454945 1.773834 -1.353609 -1.036740 -0.735892 3.569375 -1.195102 1.610190 -7.925307 -3.144547 -91.062683 1.559541 1.386389 0.940942 0.646255 -6.223456 -1.330828 -3.038263 7.970544 0.992649 0.973564 1.815534 -0.694661 0.569692 -4.058994 -0.333134 0.003006 -0.007675 -0.012567 4.164008 8.290009 -0.635153 4.246425 1.631675 0.337938 2.846455 -4.572494 0.820131 0.002158 0.032136 0.002023
-13.212261 89.151439 1.896091 -132.578789 -5.545674 -0.376292 -0.003902 2.791277 0.382380 -0.010564 1.593283 0.225266 -0.012227 1.991610 0.281564 -0.010564 1.593283 0.225266 3.609414 23.434411 -1.194286 4.187251 -0.416796 -2.120892 -3.223473 -0.901526 -2.809264 8.001477 -1.460503 90.108950 4.528103 -1.460360 1.769394 -1.360772 -1.038910 -0.735246 3.554386 -1.190270 1.611931 -7.923949 -3.125263 -91.078959 1.566096 1.394088 0.941412 0.653374 -6.213828 -1.339698 -2.997907 7.980266 0.994730 0.981041 1.828711 -0.685416 0.563819 -4.062881 -0.337325 0.002665 -0.007359 -0.012458 4.142438 8.302965 -0.636154 4.240897 1.651942 0.341318 2.883254 -4.585533 0.816651 0.002255 0.031388 0.001025
-13.205711 89.150965 1.895933 -132.614258 -5.568060 -0.377330 0.005199 2.798236 0.380599 -0.005989 1.597645 0.224466 -0.006508 1.997060 0.280583 -0.005989 1.597645 0.224466 3.602276 23.439547 -1.190898 4.178709 -0.411105 -2.115568 -3.216635 -0.901092 -2.807837 8.001623 -1.468288 90.113431 4.543358 -1.466407 1.766808 -1.366256 -1.038549 -0.736084 3.538649 -1.187984 1.613123 -7.919301 -3.106302 -91.091656 1.574046 1.401904 0.940880 0.654718 -6.207814 -1.351281 -2.954857 7.989413 0.998530 0.983741 1.841053 -0.677596 0.559576 -4.065591 -0.340844 0.002182 -0.007512 -0.012655 4.117827 8.314447 -0.638739 4.237271 1.673435 0.345904 2.924548 -4.598889 0.813644 0.002141 0.030815 -0.000240
-13.198531 89.150348 1.895955 -132.653780 -5.589731 -0.379144 0.016240 2.804583 0.378219 -0.000057 1.601711 0.223403 0.000905 2.002137 0.279280 -0.000057 1.601711 0.223403 3.595091 23.445273 -1.186440 4.169874 -0.404740 -2.109072 -3.208336 -0.898316 -2.801988 8.003230 -1.473807 90.112883 4.557496 -1.470993 1.768415 -1.368184 -1.037416 -0.739484 3.520860 -1.184594 1.615321 -7.911320 -3.090049 -91.098688 1.583182 1.410820 0.938158 0.655987 -6.203848 -1.364100 -2.908193 7.998605 1.003768 0.982932 1.850141 -0.668944 0.557622 -4.065649 -0.346116 0.001793 -0.007858 -0.012313 4.095973 8.324904 -0.642320 4.235793 1.695006 0.355403 2.963927 -4.612085 0.806723 0.001701 0.030484 -0.000475
-13.190807 89.149574 1.895963 -132.694669 -5.611140 -0.382554 0.028051 2.810333 0.376092 0.006539 1.605310 0.222599 0.009150 2.006632 0.278305 0.006539 1.605310 0.222599 3.588791 23.452290 -1.181644 4.161947 -0.396780 -2.102421 -3.198052 -0.893232 -2.796482 8.006880 -1.477875 90.109273 4.568753 -1.474220 1.774068 -1.368916 -1.036230 -0.743907 3.501943 -1.178854 1.618117 -7.901548 -3.080465 -91.102720 1.595549 1.422124 0.935606 0.659104 -6.201072 -1.374885 -2.862717 8.007978 1.010304 0.981257 1.857629 -0.658769 0.558256 -4.064306 -0.354383 0.001543 -0.008286 -0.010822 4.074328 8.335989 -0.645145 4.236908 1.714226 0.367324 3.001424 -4.624555 0.797193 0.001300 0.030996 0.000108
-13.182818 89.148621 1.896173 -132.731684 -5.631904 -0.385879 0.039471 2.816381 0.373877 0.012977 1.608790 0.221589 0.017196 2.010978 0.277071 0.012977 1.608790 0.221589 3.582487 23.459414 -1.176460 4.153927 -0.388703 -2.095349 -3.190037 -0.889395 -2.792215 8.013526 -1.481899 90.104140 4.574548 -1.474436 1.781583 -1.369082 -1.035536 -0.745194 3.481539 -1.174378 1.622494 -7.895011 -3.075190 -91.106206 1.612161 1.433735 0.934737 0.661936 -6.196370 -1.381804 -2.821561 8.016473 1.016204 0.982145 1.866004 -0.647828 0.556350 -4.064108 -0.363471 0.001884 -0.008200 -0.009342 4.049931 8.345437 -0.648530 4.237831 1.734517 0.379132 3.039327 -4.637648 0.788364 0.000912 0.032151 0.000218
-13.174586 89.147472 1.896807 -132.762907 -5.650568 -0.388048 0.050503 2.821983 0.371753 0.019281 1.611838 0.220341 0.025073 2.014785 0.275538 0.019281 1.611838 0.220341 3.574651 23.466954 -1.171025 4.144175 -0.380213 -2.087648 -3.185726 -0.885490 -2.788729 8.023109 -1.485929 90.098158 4.576278 -1.472660 1.789336 -1.367486 -1.035942 -0.744886 3.458108 -1.171315 1.625994 -7.894841 -3.069972 -91.108021 1.630718 1.441785 0.935314 0.662820 -6.186807 -1.387725 -2.785068 8.023410 1.020701 0.986068 1.873746 -0.637665 0.551091 -4.064229 -0.370735 0.002734 -0.007614 -0.008888 4.022582 8.351074 -0.652681 4.237001 1.757168 0.390960 3.072647 -4.651252 0.780013 0.000393 0.033536 -0.000355
